<svg width="32" height="32" viewBox="0 0 32 32" fill="none" xmlns="http://www.w3.org/2000/svg">
<path d="M23.7037 21.8754C24.23 21.7077 24.5205 21.145 24.3528 20.6189C24.1851 20.0928 23.6224 19.8021 23.0963 19.9698L23.7037 21.8754ZM15.5729 21.2457C15.0209 21.2606 14.5855 21.7202 14.6004 22.2724C14.6153 22.8244 15.0749 23.2598 15.6271 23.2449L15.5729 21.2457ZM22.5013 21.3508C22.7437 21.847 23.3424 22.0529 23.8388 21.8106C24.3351 21.5682 24.5409 20.9696 24.2987 20.4732L22.5013 21.3508ZM22.5472 19.1653L21.63 19.5637C21.6359 19.5773 21.6421 19.5908 21.6485 19.6041L22.5472 19.1653ZM21.2563 14.408L22.2491 14.2876C22.2473 14.273 22.2452 14.2586 22.2428 14.2442L21.2563 14.408ZM15.6091 7.92129C15.0568 7.92129 14.6091 8.36901 14.6091 8.92129C14.6091 9.47357 15.0568 9.92129 15.6091 9.92129V7.92129ZM15.6091 9.92129C16.1613 9.92129 16.6091 9.47357 16.6091 8.92129C16.6091 8.36901 16.1613 7.92129 15.6091 7.92129V9.92129ZM9.94371 14.4093L8.95727 14.2452C8.95486 14.2597 8.95276 14.2742 8.951 14.2888L9.94371 14.4093ZM8.65282 19.1653L9.55143 19.6041C9.55791 19.5908 9.56411 19.5773 9.57 19.5637L8.65282 19.1653ZM6.9014 20.4732C6.65908 20.9696 6.86498 21.5682 7.36127 21.8106C7.85756 22.0529 8.45631 21.847 8.69863 21.3508L6.9014 20.4732ZM14.6091 8.92129C14.6091 9.47357 15.0568 9.92129 15.6091 9.92129C16.1613 9.92129 16.6091 9.47357 16.6091 8.92129H14.6091ZM16.6091 6.66663C16.6091 6.11435 16.1613 5.66663 15.6091 5.66663C15.0568 5.66663 14.6091 6.11435 14.6091 6.66663H16.6091ZM14.6091 8.92129C14.6091 9.47357 15.0568 9.92129 15.6091 9.92129C16.1613 9.92129 16.6091 9.47357 16.6091 8.92129H14.6091ZM16.6091 6.66663C16.6091 6.11435 16.1613 5.66663 15.6091 5.66663C15.0568 5.66663 14.6091 6.11435 14.6091 6.66663H16.6091ZM8.10375 19.9698C7.57756 19.8021 7.015 20.0928 6.84726 20.6189C6.67951 21.145 6.97008 21.7077 7.49627 21.8754L8.10375 19.9698ZM15.5729 23.2449C16.1251 23.2598 16.5847 22.8244 16.5996 22.2724C16.6145 21.7202 16.1791 21.2606 15.6271 21.2457L15.5729 23.2449ZM14 22.0306C14 21.4784 13.5523 21.0306 13 21.0306C12.4477 21.0306 12 21.4784 12 22.0306H14ZM19.2065 22.0306C19.2065 21.4784 18.7588 21.0306 18.2065 21.0306C17.6543 21.0306 17.2065 21.4784 17.2065 22.0306H19.2065ZM23.0963 19.9698C20.6572 20.7474 18.1257 21.1766 15.5729 21.2457L15.6271 23.2449C18.3681 23.1709 21.0859 22.71 23.7037 21.8754L23.0963 19.9698ZM24.2987 20.4732L23.4459 18.7265L21.6485 19.6041L22.5013 21.3508L24.2987 20.4732ZM23.4644 18.7669C22.8463 17.344 22.4367 15.8345 22.2491 14.2876L20.2636 14.5284C20.4744 16.2662 20.9347 17.963 21.63 19.5637L23.4644 18.7669ZM22.2428 14.2442C21.9595 12.5375 21.356 10.9533 20.2597 9.78525C19.1368 8.58891 17.5825 7.92129 15.6091 7.92129V9.92129C17.0924 9.92129 18.0972 10.4037 18.8015 11.154C19.5323 11.9326 20.0241 13.0918 20.2699 14.5717L22.2428 14.2442ZM15.6091 7.92129C13.6355 7.92129 12.0778 8.58857 10.9509 9.78381C9.85007 10.9515 9.24164 12.536 8.95727 14.2452L10.9301 14.5734C11.1762 13.0946 11.6715 11.9351 12.4062 11.1558C13.1149 10.404 14.1248 9.92129 15.6091 9.92129V7.92129ZM8.951 14.2888C8.76326 15.8353 8.35359 17.3444 7.73562 18.7669L9.57 19.5637C10.2652 17.9636 10.7255 16.2672 10.9364 14.5298L8.951 14.2888ZM7.7542 18.7265L6.9014 20.4732L8.69863 21.3508L9.55143 19.6041L7.7542 18.7265ZM16.6091 8.92129V6.66663H14.6091V8.92129H16.6091ZM16.6091 8.92129V6.66663H14.6091V8.92129H16.6091ZM7.49627 21.8754C10.1141 22.71 12.8319 23.1709 15.5729 23.2449L15.6271 21.2457C13.0743 21.1766 10.5428 20.7474 8.10375 19.9698L7.49627 21.8754ZM12 22.0306V22.6973H14V22.0306H12ZM12 22.6973C12 24.7002 13.5895 26.3673 15.6032 26.3673V24.3673C14.7415 24.3673 14 23.6436 14 22.6973H12ZM15.6032 26.3673C17.6169 26.3673 19.2065 24.7002 19.2065 22.6973H17.2065C17.2065 23.6436 16.4649 24.3673 15.6032 24.3673V26.3673ZM19.2065 22.6973V22.0306H17.2065V22.6973H19.2065Z" fill="black"/>
</svg>
