<svg width="48" height="48" viewBox="0 0 48 48" fill="none" xmlns="http://www.w3.org/2000/svg">
<g opacity="0.7">
<path d="M24.2393 25.5548C24.0997 25.5349 23.9203 25.5349 23.7609 25.5548C20.2526 25.4352 17.4618 22.5648 17.4618 19.0365C17.4618 15.4285 20.3722 12.4983 24.0001 12.4983C27.608 12.4983 30.5383 15.4285 30.5383 19.0365C30.5183 22.5648 27.7476 25.4352 24.2393 25.5548Z" stroke="black" stroke-width="2.99003" stroke-linecap="round" stroke-linejoin="round"/>
<path d="M37.4352 38.7112C33.8871 41.9603 29.1827 43.9337 24 43.9337C18.8173 43.9337 14.113 41.9603 10.5648 38.7112C10.7642 36.8374 11.9602 35.0035 14.0931 33.5683C19.5549 29.9404 28.4851 29.9404 33.907 33.5683C36.0399 35.0035 37.2359 36.8374 37.4352 38.7112Z" stroke="black" stroke-width="2.99003" stroke-linecap="round" stroke-linejoin="round"/>
<path d="M24 43.9336C35.0089 43.9336 43.9335 35.0089 43.9335 24C43.9335 12.991 35.0089 4.06644 24 4.06644C12.991 4.06644 4.06641 12.991 4.06641 24C4.06641 35.0089 12.991 43.9336 24 43.9336Z" stroke="black" stroke-width="2.99003" stroke-linecap="round" stroke-linejoin="round"/>
</g>
</svg>
